<svg width="17" height="17" viewBox="0 0 17 17" fill="none" xmlns="http://www.w3.org/2000/svg">
<g clip-path="url(#clip0_3_44)">
<path d="M4.59449 5.01969L3.14094 3.57297L4.10315 2.61076L5.54987 4.0643L4.59449 5.01969ZM9.37139 0.993439V3.04068H8.00656V0.993439H9.37139ZM14.237 3.57297L12.7835 5.01969L11.8281 4.0643L13.2748 2.61076L14.237 3.57297ZM3.57086 7.47638V8.84121H1.52362V7.47638H3.57086ZM13.8071 7.47638H15.8543V8.84121H13.8071V7.47638ZM4.59449 13.9593H12.7835C13.1454 13.9593 13.4926 14.1031 13.7485 14.3591C14.0045 14.615 14.1483 14.9622 14.1483 15.3241H3.22966C3.22966 14.9622 3.37345 14.615 3.62941 14.3591C3.88536 14.1031 4.23251 13.9593 4.59449 13.9593ZM8.68897 3.7231C9.7749 3.7231 10.8164 4.15448 11.5842 4.92235C12.3521 5.69021 12.7835 6.73166 12.7835 7.81759V13.2769H4.59449V7.81759C4.59449 6.73166 5.02587 5.69021 5.79373 4.92235C6.5616 4.15448 7.60305 3.7231 8.68897 3.7231Z" fill="#CC3E2E"/>
</g>
<defs>
<clipPath id="clip0_3_44">
<rect width="16.378" height="16.378" fill="white" transform="translate(0.5 0.311035)"/>
</clipPath>
</defs>
</svg>
