<svg width="25" height="21" viewBox="0 0 25 21" fill="none" xmlns="http://www.w3.org/2000/svg">
<g clip-path="url(#clip0_37_41)">
<path d="M5.87187 9.18038L5.40612 10.9193C5.29325 11.3411 5.27 11.7776 5.31575 12.2089L3.99575 13.2956C3.74937 13.4985 3.38412 13.2795 3.4475 12.9668L4.0265 10.0913C4.06625 9.89401 3.92675 9.70576 3.7265 9.68663L0.806748 9.40351C0.489123 9.37276 0.385623 8.95988 0.651498 8.78326L3.09462 7.15951C3.26187 7.04813 3.29637 6.81638 3.16887 6.66113L1.30475 4.39576C1.10187 4.14938 1.32087 3.78451 1.634 3.84751L4.5095 4.42651C4.70675 4.46626 4.895 4.32676 4.9145 4.12651L5.19762 1.20676C5.22837 0.888755 5.64125 0.78563 5.81825 1.05151L7.442 3.49426C7.55337 3.66151 7.78512 3.69601 7.94037 3.56851L10.2054 1.70438C10.4517 1.50151 10.8166 1.72051 10.7536 2.03326L10.3287 4.13926C10.2271 4.25363 10.1251 4.36763 10.0321 4.49176L8.8265 6.10313L8.42487 6.64013C7.1975 6.96863 6.20562 7.93501 5.87187 9.18038ZM24.4182 14.1495L23.9525 15.888C23.8351 16.326 23.6007 16.6984 23.2944 16.989C23.1924 17.0855 23.0825 17.1733 22.9659 17.2515L22.4412 19.2101C22.3985 19.3703 22.325 19.5139 22.2294 19.6369C21.9417 20.0059 21.4516 20.1874 20.9716 20.0588L19.8125 19.7483C19.1724 19.5769 18.7925 18.9188 18.9639 18.2786L19.2744 17.1195L10.0014 14.6348L9.69087 15.7939C9.5195 16.434 8.86137 16.8139 8.22125 16.6425L7.06212 16.332C6.58212 16.2034 6.24837 15.801 6.18387 15.3379C6.1625 15.1834 6.17075 15.0221 6.2135 14.8624L6.73812 12.9038C6.67606 12.7777 6.62476 12.6466 6.58475 12.5119C6.46475 12.1073 6.44787 11.6674 6.56525 11.2294L7.031 9.49051C7.23012 8.74801 7.757 8.18438 8.41437 7.90763C8.63541 7.81447 8.86911 7.75481 9.10775 7.73063L9.78762 6.82201L10.9932 5.21063C11.1226 5.03776 11.2629 4.87688 11.4132 4.72913C11.7132 4.43326 12.0519 4.18763 12.416 3.99751C12.5982 3.90226 12.7869 3.82088 12.9804 3.75413C13.3677 3.61988 13.775 3.54301 14.1894 3.52763C14.6037 3.51226 15.026 3.55838 15.443 3.67013L20.0435 4.90276C20.4605 5.01451 20.849 5.18551 21.2004 5.40638C21.7247 5.73561 22.1691 6.17757 22.5012 6.70013C22.832 7.22063 23.0502 7.81913 23.1267 8.46226L23.3652 10.4606L23.4999 11.5875C23.8893 11.8687 24.1861 12.2594 24.3526 12.7099C24.5172 13.1554 24.551 13.6545 24.4182 14.1495ZM10.0842 9.68776C9.38862 9.50138 8.80137 9.83926 8.61537 10.5326C8.42937 11.226 8.7695 11.8121 9.46475 11.9985C10.1604 12.1849 11.1725 12.5801 11.3581 11.8868C11.5441 11.1934 10.7795 9.87413 10.0842 9.68776ZM20.9821 10.7441L20.7436 8.74576C20.7219 8.56313 20.6727 8.38838 20.6004 8.22601C20.3829 7.73888 19.9554 7.36313 19.4221 7.22025L14.8216 5.98763C14.4741 5.89455 14.1067 5.90772 13.7668 6.02542C13.4268 6.14313 13.1299 6.35998 12.9144 6.64801L11.7087 8.25938L18.1587 9.98738L20.9821 10.7441ZM21.6755 12.7935C20.9799 12.6071 19.658 13.3676 19.4724 14.0606C19.2867 14.754 20.3607 14.9179 21.0564 15.1043C21.752 15.2906 22.3392 14.9528 22.5252 14.2594C22.7109 13.5664 22.3711 12.9799 21.6755 12.7935Z" fill="#CC3E2E"/>
</g>
<defs>
<clipPath id="clip0_37_41">
<rect width="24" height="19.2" fill="white" transform="translate(0.5 0.899994)"/>
</clipPath>
</defs>
</svg>
