<svg width="25" height="25" viewBox="0 0 25 25" fill="none" xmlns="http://www.w3.org/2000/svg">
<path d="M13.6275 1.43126C10.6128 1.43126 7.92002 2.78093 6.14426 4.89692C7.42802 4.9002 10.2659 5.03988 10.6499 6.10282C8.84923 5.5354 6.91146 5.57501 5.56235 5.66679C5.32471 6.0163 5.11085 6.38141 4.92223 6.75963C6.39912 6.37024 11.8596 6.60167 12.1785 7.75657C8.61668 6.88357 5.58832 7.3511 4.58201 7.52712C4.17101 8.57927 3.94526 9.7211 3.94526 10.9149C3.94526 16.1525 8.45688 23.5687 13.8042 23.5687C16.5139 23.5687 18.9183 21.6642 20.6309 19.104C19.1589 20.2202 16.0353 21.7903 14.1152 20.7281C17.9398 20.3065 20.6761 18.3385 21.4366 17.7584C22.6182 15.5486 23.3097 13.0507 23.3097 10.9149C23.3097 5.6772 18.9748 1.43126 13.6275 1.43126ZM13.6274 8.54182C18.5532 8.54182 22.5465 9.84153 22.5465 11.4448C22.5465 12.4783 22.3358 13.0142 19.8372 13.5286C18.4596 13.8123 15.3782 12.067 13.6274 12.067C11.9932 12.067 9.54368 14.005 8.22654 13.7553C5.57355 13.2522 4.70843 12.5162 4.70843 11.4448C4.70843 9.84153 8.70162 8.54182 13.6274 8.54182ZM17.5595 10.4119C16.6155 10.4062 15.6109 10.5663 15.6154 10.8764C15.6239 11.4601 16.4293 11.9216 17.4143 11.9072C18.3993 11.8928 18.2841 11.147 19.1823 10.8243C19.1783 10.5507 18.3925 10.4168 17.5595 10.4119H17.5595ZM9.46507 10.547C8.6321 10.5519 7.84629 10.6859 7.84226 10.9595C8.74047 11.2822 8.62526 12.0281 9.61029 12.0424C10.5953 12.0568 11.4007 11.5952 11.4092 11.0115C11.4137 10.7014 10.4091 10.5414 9.46507 10.547ZM13.8043 14.4114C15.2589 14.4114 16.4381 15.5943 16.4381 15.5943C16.4381 15.5943 15.117 15.0738 13.6623 15.0738C12.2076 15.0738 11.1704 15.5943 11.1704 15.5943C11.1704 15.5943 12.3496 14.4114 13.8043 14.4114ZM1.96483 19.7839C2.16846 19.8798 2.32966 17.8932 4.41387 16.9121C4.03366 16.5153 3.83083 15.7572 3.74637 15.2479C2.21201 15.4429 1.16768 19.227 1.96483 19.7839ZM4.60437 17.8295C4.25229 17.8271 3.7953 17.8188 3.78663 18.6234C3.76329 20.7942 1.78015 23.1681 1.90563 23.2272C2.24023 23.3849 4.23054 21.7236 4.80748 20.441C5.00243 20.0077 5.34729 17.8346 4.60437 17.8295Z" fill="#CC3E2E"/>
</svg>
