<svg width="15" height="19" viewBox="0 0 15 19" fill="none" xmlns="http://www.w3.org/2000/svg">
<path d="M13.16 8.7C12.93 8.4 12.65 8.14 12.39 7.88C11.72 7.28 10.96 6.85 10.32 6.22C8.82999 4.76 8.49999 2.35 9.44999 0.5C8.49999 0.73 7.66999 1.25 6.95999 1.82C4.36999 3.9 3.34999 7.57 4.56999 10.72C4.60999 10.82 4.64999 10.92 4.64999 11.05C4.64999 11.27 4.49999 11.47 4.29999 11.55C4.06999 11.65 3.82999 11.59 3.63999 11.43C3.58323 11.3825 3.53577 11.3248 3.49999 11.26C2.36999 9.83 2.18999 7.78 2.94999 6.14C1.27999 7.5 0.369989 9.8 0.499989 11.97C0.559989 12.47 0.619989 12.97 0.789989 13.47C0.929989 14.07 1.19999 14.67 1.49999 15.2C2.57999 16.93 4.44999 18.17 6.45999 18.42C8.59999 18.69 10.89 18.3 12.53 16.82C14.36 15.16 15 12.5 14.06 10.22L13.93 9.96C13.72 9.5 13.16 8.7 13.16 8.7ZM9.99999 15C9.71999 15.24 9.25999 15.5 8.89999 15.6C7.77999 16 6.65999 15.44 5.99999 14.78C7.18999 14.5 7.89999 13.62 8.10999 12.73C8.27999 11.93 7.95999 11.27 7.82999 10.5C7.70999 9.76 7.72999 9.13 7.99999 8.44C8.18999 8.82 8.38999 9.2 8.62999 9.5C9.39999 10.5 10.61 10.94 10.87 12.3C10.91 12.44 10.93 12.58 10.93 12.73C10.96 13.55 10.6 14.45 9.99999 15Z" fill="#CC3E2E"/>
</svg>
