<svg width="32" height="33" viewBox="0 0 32 33" fill="none" xmlns="http://www.w3.org/2000/svg">
<path d="M-0.000183105 32.5V29.3C1.01315 29.3 1.76675 29.0333 2.26062 28.5C2.75448 27.9667 3.78755 27.7 5.35982 27.7C6.93208 27.7 7.95875 27.9667 8.43982 28.5C8.92088 29.0333 9.66755 29.3 10.6798 29.3C11.6921 29.3 12.4388 29.0333 12.9198 28.5C13.4009 27.9667 14.4276 27.7 15.9998 27.7C17.5198 27.7 18.5534 27.9667 19.1006 28.5C19.6478 29.0333 20.4009 29.3 21.3598 29.3C22.3732 29.3 23.1198 29.0333 23.5998 28.5C24.0798 27.9667 25.1065 27.7 26.6798 27.7C28.2531 27.7 29.2798 27.9667 29.7598 28.5C30.2398 29.0333 30.9865 29.3 31.9998 29.3V32.5C30.4531 32.5 29.4265 32.2333 28.9198 31.7C28.4132 31.1667 27.6665 30.9 26.6798 30.9C25.6931 30.9 24.9465 31.1667 24.4398 31.7C23.9331 32.2333 22.9065 32.5 21.3598 32.5C19.8132 32.5 18.7801 32.2333 18.2606 31.7C17.7411 31.1667 16.9876 30.9 15.9998 30.9C14.9865 30.9 14.2398 31.1667 13.7598 31.7C13.2798 32.2333 12.2532 32.5 10.6798 32.5C9.10648 32.5 8.07982 32.2333 7.59982 31.7C7.11982 31.1667 6.37315 30.9 5.35982 30.9C4.37315 30.9 3.62648 31.1667 3.11982 31.7C2.61315 32.2333 1.57315 32.5 -0.000183105 32.5ZM-0.000183105 25.3V22.1C1.01315 22.1 1.75982 21.8333 2.23982 21.3C2.71982 20.7667 3.74648 20.5 5.31982 20.5C5.47982 20.5 5.63982 20.5069 5.79982 20.5208C5.95982 20.5347 6.10648 20.5544 6.23982 20.58L4.71982 14.98L2.51982 17.86L-0.000183105 15.86L12.4398 0.500015L30.8798 7.54002L29.7198 10.54L26.3598 9.18002L29.5998 21.22C29.9732 21.4333 30.3396 21.6333 30.699 21.82C31.0585 22.0067 31.4921 22.1 31.9998 22.1V25.3C30.4798 25.2733 29.4532 24.9997 28.9198 24.4792C28.3865 23.9587 27.6398 23.6989 26.6798 23.7C25.6665 23.7 24.9198 23.9667 24.4398 24.5C23.9598 25.0333 22.9332 25.3 21.3598 25.3C19.8398 25.3 18.8068 25.0333 18.2606 24.5C17.7145 23.9667 16.9609 23.7 15.9998 23.7C14.9865 23.7 14.2398 23.9667 13.7598 24.5C13.2798 25.0333 12.2532 25.3 10.6798 25.3C9.15982 25.3 8.13315 25.0333 7.59982 24.5C7.06648 23.9667 6.31982 23.7 5.35982 23.7C4.42648 23.7 3.67982 23.9667 3.11982 24.5C2.55982 25.0333 1.51982 25.3 -0.000183105 25.3ZM21.5198 22.06L19.2798 13.58L13.0798 15.22L14.5598 20.66C14.7732 20.6067 14.9934 20.5667 15.2206 20.54C15.4478 20.5133 15.7076 20.5 15.9998 20.5C17.5198 20.5 18.6068 20.7933 19.2606 21.38C19.9145 21.9667 20.6676 22.1933 21.5198 22.06Z" fill="#CC3E2E"/>
</svg>
