<svg width="25" height="25" viewBox="0 0 25 25" fill="none" xmlns="http://www.w3.org/2000/svg">
<g clip-path="url(#clip0_58_259)">
<path fill-rule="evenodd" clip-rule="evenodd" d="M12.4985 2C12.737 1.99974 12.9695 2.0753 13.1622 2.21578C13.355 2.35625 13.4982 2.55436 13.571 2.7815L18.5 18.185L20.429 12.158C20.5015 11.9308 20.6443 11.7326 20.8368 11.5918C21.0293 11.4511 21.2615 11.3752 21.5 11.375H23.375C23.6734 11.375 23.9595 11.4935 24.1705 11.7045C24.3815 11.9155 24.5 12.2016 24.5 12.5C24.5 12.7984 24.3815 13.0845 24.1705 13.2955C23.9595 13.5065 23.6734 13.625 23.375 13.625H22.3205L19.571 22.2185C19.4981 22.4452 19.3551 22.643 19.1627 22.7833C18.9702 22.9236 18.7382 22.9991 18.5 22.9991C18.2618 22.9991 18.0298 22.9236 17.8373 22.7833C17.6449 22.643 17.5019 22.4452 17.429 22.2185L12.5075 6.839L9.0725 17.714C9.00163 17.9381 8.86236 18.1344 8.67424 18.2753C8.48612 18.4161 8.2586 18.4946 8.02362 18.4995C7.78864 18.5045 7.55801 18.4357 7.36411 18.3029C7.1702 18.1701 7.02277 17.9799 6.9425 17.759L5.0465 12.545L4.9415 12.857C4.86692 13.0809 4.7238 13.2757 4.5324 13.4138C4.341 13.5519 4.11102 13.6263 3.875 13.6265H1.625C1.32663 13.6265 1.04048 13.508 0.829505 13.297C0.618526 13.086 0.5 12.7999 0.5 12.5015C0.5 12.2031 0.618526 11.917 0.829505 11.706C1.04048 11.495 1.32663 11.3765 1.625 11.3765H3.065L3.932 8.771C4.0055 8.54908 4.14631 8.35556 4.33485 8.21735C4.5234 8.07914 4.75032 8.00311 4.98408 7.99981C5.21783 7.99651 5.44681 8.06611 5.63918 8.19894C5.83155 8.33178 5.97777 8.52124 6.0575 8.741L7.925 13.8785L11.4275 2.7875C11.4992 2.55949 11.6417 2.36024 11.8342 2.21864C12.0268 2.07705 12.2595 2.00046 12.4985 2Z" fill="#CC3E2E"/>
</g>
<defs>
<clipPath id="clip0_58_259">
<rect width="24" height="24" fill="white" transform="translate(0.5 0.5)"/>
</clipPath>
</defs>
</svg>
